<svg width="45" height="47" viewBox="0 0 45 47" fill="none" xmlns="http://www.w3.org/2000/svg">
<path d="M20.286 33.292H23.9746V21.542H20.286V33.292ZM22.1303 17.6253C22.6529 17.6253 23.0912 17.4373 23.4453 17.0613C23.7994 16.6853 23.9758 16.2205 23.9746 15.667C23.9746 15.1121 23.7976 14.6467 23.4434 14.2707C23.0893 13.8947 22.6516 13.7074 22.1303 13.7087C21.6078 13.7087 21.1694 13.8967 20.8153 14.2727C20.4612 14.6487 20.2848 15.1134 20.286 15.667C20.286 16.2219 20.4631 16.6873 20.8172 17.0633C21.1713 17.4393 21.609 17.6266 22.1303 17.6253ZM22.1303 43.0837C19.5791 43.0837 17.1815 42.5693 14.9376 41.5405C12.6937 40.5117 10.7419 39.1167 9.08203 37.3555C7.42217 35.593 6.10843 33.5205 5.14079 31.1378C4.17316 28.7552 3.68873 26.2094 3.6875 23.5003C3.6875 20.7913 4.17193 18.2455 5.14079 15.8628C6.10966 13.4802 7.4234 11.4076 9.08203 9.64512C10.7419 7.88262 12.6937 6.48763 14.9376 5.46016C17.1815 4.43269 19.5791 3.9183 22.1303 3.91699C24.6816 3.91699 27.0791 4.43138 29.323 5.46016C31.5669 6.48894 33.5188 7.88392 35.1786 9.64512C36.8385 11.4076 38.1528 13.4802 39.1217 15.8628C40.0906 18.2455 40.5744 20.7913 40.5731 23.5003C40.5731 26.2094 40.0887 28.7552 39.1198 31.1378C38.151 33.5205 36.8372 35.593 35.1786 37.3555C33.5188 39.118 31.5669 40.5137 29.323 41.5424C27.0791 42.5712 24.6816 43.085 22.1303 43.0837Z" fill="#464646"/>
</svg>
